<?xml version="1.0" encoding="UTF-8"?>
<svg id="Layer_1" xmlns="http://www.w3.org/2000/svg" version="1.1" viewBox="0 0 1920 1080">
  <!-- Generator: Adobe Illustrator 30.2.1, SVG Export Plug-In . SVG Version: 2.1.1 Build 1)  -->
  <path d="M957.27,499.22c-20.99,0-38,17.01-38,38,0,7.01,1.91,13.58,5.22,19.22,1.73-4.26,5.13-8.01,9.56-10.88,6.12-3.95,14.26-6.34,23.22-6.34s17.1,2.39,23.22,6.34c2.52,1.63,4.67,3.55,6.41,5.69.13,0,.25-.03.38-.03,1.75,0,3.42.29,5,.81,1.93-4.56,3-9.56,3-14.81,0-20.99-17.01-38-38-38h0ZM957.27,506.22c7.71,0,14,6.29,14,14s-6.29,14-14,14-14-6.29-14-14,6.29-14,14-14ZM957.27,510.22c-5.55,0-10,4.45-10,10s4.45,10,10,10,10-4.45,10-10-4.45-10-10-10ZM957.27,543.22c-8.24,0-15.66,2.22-21.03,5.69-4.95,3.2-8.1,7.38-8.84,11.78,6.96,8.85,17.75,14.53,29.88,14.53,5.26,0,10.26-1.07,14.81-3-.52-1.58-.81-3.25-.81-5,0-7.07,4.6-13.08,10.97-15.19-1.14-1.12-2.45-2.16-3.94-3.12-5.37-3.47-12.79-5.69-21.03-5.69ZM987.27,553.22c-7.73,0-14,6.27-14,14s6.27,14,14,14,14-6.27,14-14-6.27-14-14-14ZM987.27,558.22c.58,0,1.07.27,1.44.66,1.66,1.48,3.31,3.34,4.97,4.94.8.8.78,2.03,0,2.81-.78.78-2.03.78-2.81,0l-1.59-1.59v9.19c0,1.1-.9,2-2,2s-2-.9-2-2v-9.19l-1.59,1.59c-.78.78-2.03.78-2.81,0-.78-.78-.8-2.01,0-2.81,1.63-1.64,3.33-3.42,4.97-4.94.37-.39.86-.66,1.44-.66h0Z"/>
</svg>